<?xml version="1.0" standalone="no"?>
<!DOCTYPE svg PUBLIC "-//W3C//DTD SVG 20010904//EN"
 "http://www.w3.org/TR/2001/REC-SVG-20010904/DTD/svg10.dtd">
<svg version="1.0" xmlns="http://www.w3.org/2000/svg"
 width="500.000000pt" height="500.000000pt" viewBox="0 0 500.000000 500.000000"
 preserveAspectRatio="xMidYMid meet">
<metadata>
Created by potrace 1.14, written by Peter Selinger 2001-2017
</metadata>
<g transform="translate(0.000000,500.000000) scale(0.100000,-0.100000)"
fill="#000000" stroke="none">
<path d="M2195 4329 c-11 -6 -31 -28 -45 -50 -21 -34 -29 -39 -61 -39 -21 0
-44 -7 -53 -15 -8 -8 -19 -15 -24 -15 -5 0 -15 -6 -21 -14 -17 -20 -57 -13
-86 14 -14 13 -28 20 -32 17 -3 -4 -17 2 -29 14 -18 17 -29 20 -51 14 -15 -4
-86 -7 -157 -6 -114 1 -132 -1 -150 -18 -12 -10 -36 -23 -55 -30 -29 -9 -36
-8 -47 6 -7 10 -10 21 -8 24 8 14 -35 41 -55 34 -37 -11 -81 -56 -81 -80 0
-13 -3 -30 -6 -39 -5 -14 -9 -13 -34 4 -30 21 -69 21 -123 1 -40 -16 -41 -15
-66 29 -24 44 -41 48 -101 27 -51 -18 -60 -26 -60 -52 0 -28 17 -52 73 -106
l37 -36 -20 -25 c-10 -14 -34 -28 -52 -32 -29 -6 -36 -2 -59 25 -23 29 -29 31
-64 25 -20 -4 -47 -17 -60 -30 -19 -19 -21 -29 -15 -69 7 -51 2 -57 -50 -57
-37 0 -61 -32 -53 -71 3 -18 1 -29 -5 -29 -6 0 -34 -24 -62 -52 -41 -43 -50
-60 -50 -88 0 -65 -6 -159 -11 -162 -2 -2 -13 -8 -24 -14 -11 -6 -21 -23 -23
-40 -4 -41 -32 -134 -41 -134 -5 0 -20 11 -35 25 -15 14 -34 25 -42 25 -20 0
-54 -36 -55 -60 -1 -11 -2 -26 -2 -32 -1 -7 7 -28 16 -46 17 -31 18 -67 4
-102 -3 -8 -7 -43 -9 -77 -2 -34 -10 -69 -18 -78 -28 -34 -23 -64 16 -101 35
-31 38 -38 39 -96 3 -79 18 -163 34 -182 6 -8 23 -17 36 -20 26 -7 32 -20 15
-31 -5 -3 -6 -13 -3 -23 12 -33 37 -52 75 -58 20 -4 35 -10 33 -14 -3 -5 10
-36 27 -71 25 -47 45 -70 80 -92 29 -18 51 -41 58 -60 6 -18 15 -39 19 -47 9
-17 57 -26 74 -13 7 5 26 9 42 9 28 -1 30 -4 33 -41 2 -22 8 -43 14 -46 8 -5
7 -16 -2 -38 -17 -42 -7 -72 34 -98 27 -18 35 -30 40 -68 9 -55 -3 -74 -45
-73 -35 1 -65 -23 -72 -61 -4 -18 -16 -33 -35 -42 -49 -24 -89 -79 -87 -120 1
-20 5 -41 9 -47 8 -13 1 -18 -45 -26 -33 -6 -37 -4 -43 19 -7 27 -41 41 -76
30 -13 -4 -29 -25 -40 -51 -12 -28 -24 -42 -32 -39 -8 3 -32 -10 -53 -30 -22
-19 -48 -38 -57 -41 -10 -3 -18 -15 -18 -27 0 -24 -22 -61 -60 -100 -14 -14
-25 -30 -25 -36 0 -6 -8 -16 -18 -24 -32 -23 -19 -116 20 -147 20 -15 29 -17
54 -8 38 13 42 9 33 -37 -7 -41 -38 -79 -71 -89 -13 -4 -26 -19 -30 -34 -5
-22 0 -31 32 -59 44 -38 73 -42 98 -13 22 26 44 25 53 -2 3 -13 15 -31 25 -41
11 -10 17 -22 14 -26 -8 -15 22 -32 49 -28 29 3 96 63 96 84 0 18 29 13 52
-10 10 -9 25 -17 33 -17 9 0 26 -6 38 -14 37 -23 113 -30 129 -11 7 9 21 24
31 34 10 11 19 25 21 34 1 8 9 22 18 31 16 15 32 18 88 15 62 -3 83 -1 90 11
6 10 16 6 42 -14 19 -14 42 -26 51 -26 25 0 47 29 47 61 0 16 3 29 8 30 4 0
14 2 22 4 8 2 33 9 55 14 42 10 75 43 96 94 16 38 66 87 83 81 19 -7 46 23 53
57 8 39 30 36 50 -6 9 -19 21 -35 27 -35 6 0 24 -16 39 -35 32 -41 63 -45 96
-14 18 17 21 28 17 60 -4 31 -1 44 15 60 11 11 27 18 35 15 18 -7 73 17 102
44 12 12 30 20 40 19 39 -3 52 2 65 29 8 15 11 35 7 47 -4 11 -5 28 -2 37 5
20 28 24 34 7 2 -7 15 -9 35 -5 33 8 73 59 73 94 0 13 9 17 45 17 56 0 76 18
84 75 1 3 14 14 31 23 16 10 35 30 42 45 10 20 23 28 52 33 22 4 43 14 50 25
12 21 15 54 7 69 -7 13 -11 43 -11 81 -1 18 -9 41 -19 53 -15 17 -18 34 -15
87 4 63 3 65 -26 82 -33 19 -38 43 -15 62 25 21 18 65 -14 96 -25 23 -27 30
-16 38 15 11 19 64 15 204 -2 72 -1 74 31 101 l33 28 -18 46 c-16 44 -16 46 3
82 23 43 21 52 -25 102 l-34 37 -35 -17 c-46 -22 -67 -21 -96 2 -65 50 -101
56 -172 24 -37 -16 -56 -50 -42 -73 8 -13 -24 -52 -36 -44 -5 3 -9 17 -9 31 0
19 -17 43 -57 84 -32 31 -65 67 -73 79 -13 18 -25 22 -69 22 -32 -1 -67 -8
-90 -21 l-38 -19 -21 21 c-16 15 -32 20 -67 19 -34 -2 -46 1 -42 10 2 7 13 13
25 13 23 1 57 24 63 44 3 7 18 13 34 14 19 1 33 10 39 23 5 12 24 31 43 44 45
31 48 70 8 107 -19 17 -23 28 -19 50 5 25 9 28 45 27 22 -1 47 -9 57 -18 25
-22 59 -20 79 4 13 14 20 17 30 8 7 -6 13 -16 13 -23 0 -10 40 -35 56 -35 3 0
34 29 69 65 42 43 72 65 87 65 32 0 88 55 88 86 0 13 -4 24 -9 24 -5 0 -13 10
-17 23 -3 12 -14 30 -22 40 -12 13 -13 22 -6 34 12 20 109 44 122 31 19 -19
75 -12 94 12 23 29 23 41 -3 85 -21 35 -21 37 -4 75 11 24 15 49 11 65 -8 32
-52 75 -76 75 -20 0 -30 19 -30 55 0 13 -11 32 -25 43 -23 18 -24 22 -10 36 9
8 32 20 51 25 60 16 83 70 47 107 -19 19 -23 32 -32 107 -2 17 -72 77 -89 76
-9 0 -26 -5 -37 -10z"/>
<path d="M3051 4094 c-12 -15 -21 -30 -21 -34 0 -4 -11 -12 -24 -18 -19 -8
-26 -8 -29 1 -2 8 -26 12 -64 12 -51 0 -64 4 -80 23 -10 13 -27 23 -38 23 -44
0 -118 -19 -126 -32 -13 -20 -11 -63 3 -77 8 -8 8 -12 1 -12 -6 0 -13 -18 -16
-40 -7 -53 -70 -154 -111 -177 -8 -4 -17 -20 -20 -33 -5 -33 32 -98 58 -102
14 -2 29 -21 47 -58 18 -38 33 -56 50 -60 19 -5 24 -13 26 -40 1 -19 8 -39 17
-45 19 -14 81 -11 123 6 29 12 35 11 55 -8 13 -11 33 -24 45 -27 24 -8 54 -53
73 -112 19 -58 28 -66 76 -61 41 3 45 1 69 -33 14 -20 25 -40 25 -46 1 -5 9
-19 18 -30 16 -19 30 -26 67 -36 5 -2 20 -13 33 -25 19 -18 34 -22 68 -19 52
4 71 -12 54 -44 -6 -11 -15 -18 -20 -15 -4 3 -22 -6 -38 -20 -18 -15 -38 -23
-52 -20 -34 7 -94 -29 -115 -70 -19 -34 -19 -37 -2 -66 22 -40 22 -45 -9 -76
-20 -20 -24 -33 -21 -58 5 -38 -7 -55 -41 -55 -31 0 -62 -17 -62 -34 0 -8 -7
-20 -16 -27 -24 -20 -32 -50 -23 -84 16 -53 13 -132 -5 -150 -22 -22 -31 -64
-19 -84 12 -19 8 -53 -11 -90 -13 -24 -13 -30 2 -53 13 -20 25 -25 57 -25 81
0 106 -3 101 -12 -7 -10 52 -37 61 -28 3 4 18 0 34 -9 35 -18 39 -46 7 -43
-42 4 -111 -13 -168 -41 -26 -12 -24 -58 5 -92 26 -30 26 -31 7 -52 -11 -11
-27 -35 -36 -51 -10 -17 -34 -40 -53 -51 -35 -20 -36 -23 -38 -86 -2 -36 1
-71 5 -79 6 -8 0 -23 -16 -42 -13 -16 -24 -34 -24 -40 0 -7 -9 -18 -20 -25
-24 -14 -26 -52 -5 -91 13 -25 12 -32 -5 -65 -11 -20 -20 -45 -20 -57 0 -11
-16 -36 -36 -54 -39 -37 -40 -64 -2 -95 15 -12 20 -30 21 -74 3 -69 21 -88 81
-84 33 2 43 -3 67 -32 26 -31 33 -34 90 -36 50 -1 65 2 81 18 12 12 18 28 15
39 -3 10 3 30 14 43 10 13 19 29 19 35 0 6 9 20 21 32 l21 21 29 -32 c24 -26
34 -31 57 -25 63 16 127 15 159 -2 27 -14 34 -15 48 -3 20 16 73 17 102 2 12
-7 30 -12 41 -12 25 0 59 40 56 68 -1 19 2 21 20 16 11 -4 32 -8 46 -10 14 -1
28 -2 32 -3 3 -1 12 -18 19 -38 17 -54 31 -63 102 -70 58 -5 67 -3 87 17 15
15 20 30 17 46 -5 26 20 83 49 115 9 10 18 33 20 51 6 53 11 58 56 58 33 1 51
8 77 30 26 22 38 27 52 20 32 -17 67 -11 87 15 22 28 28 24 36 -20 7 -36 53
-85 81 -85 35 0 85 30 91 55 3 13 3 47 0 75 -4 42 -2 58 13 79 10 14 19 29 20
33 1 4 4 15 7 23 5 13 2 54 -9 120 -5 33 11 55 42 55 28 0 54 19 50 36 -4 15
11 87 25 119 13 32 13 37 2 76 -5 18 -1 36 13 61 22 36 22 52 2 103 -6 17 -13
35 -16 41 -4 14 -62 44 -82 44 -10 0 -14 10 -13 33 4 59 0 68 -35 88 -20 12
-35 29 -35 39 0 10 -13 28 -30 40 -16 12 -30 26 -30 31 0 14 -21 33 -43 42
-14 5 -18 16 -16 39 5 74 -29 173 -63 184 -9 3 -26 0 -36 -5 -17 -9 -23 -25
-38 -99 -4 -23 -13 -26 -40 -13 -15 6 -24 14 -21 17 13 14 -16 62 -46 75 -35
15 -40 47 -12 75 8 9 15 27 15 40 0 20 -9 29 -43 43 -64 27 -71 40 -59 107 9
52 8 57 -15 81 -19 19 -24 30 -19 51 11 45 8 63 -18 103 -31 46 -33 89 -7 143
19 39 18 68 -3 84 -16 13 -56 22 -56 12 0 -4 -16 -11 -35 -14 -37 -7 -60 -36
-52 -66 7 -26 -16 -32 -71 -18 -77 20 -76 17 -52 111 8 28 18 47 27 47 7 0 25
11 38 24 29 29 26 62 -7 90 -23 18 -53 18 -132 0 -25 -6 -28 -4 -23 10 9 22
-12 64 -35 72 -23 7 -78 -14 -78 -30 0 -6 -9 -16 -19 -21 -11 -6 -35 -23 -55
-39 -39 -31 -61 -29 -31 4 10 11 15 28 12 40 -3 11 1 27 9 34 8 8 14 24 14 35
0 12 5 21 11 21 7 0 10 12 7 30 -3 17 -1 30 3 30 12 0 21 72 10 83 -6 6 -11
22 -11 35 0 14 -11 33 -25 44 -14 11 -25 25 -25 31 0 20 -67 86 -94 93 -16 4
-26 13 -26 24 0 26 -49 62 -75 56 -26 -7 -75 15 -75 34 0 8 -9 26 -19 39 -15
19 -29 25 -67 26 -27 1 -61 5 -76 9 -21 5 -31 1 -47 -20z"/>
</g>
</svg>
